<svg version="1.1" viewBox="0.0 0.0 689.0157480314961 209.0" fill="none" stroke="none" stroke-linecap="square" stroke-miterlimit="10" xmlns:xlink="http://www.w3.org/1999/xlink" xmlns="http://www.w3.org/2000/svg"><clipPath id="p.0"><path d="m0 0l689.01575 0l0 209.0l-689.01575 0l0 -209.0z" clip-rule="nonzero"/></clipPath><g clip-path="url(#p.0)"><path fill="#000000" fill-opacity="0.0" d="m0 0l689.01575 0l0 209.0l-689.01575 0z" fill-rule="evenodd"/><path fill="#000000" fill-opacity="0.0" d="m164.0 10.577428l320.0 0l0 180.0l-320.0 0z" fill-rule="evenodd"/><path stroke="#000000" stroke-width="1.0" stroke-linejoin="round" stroke-linecap="butt" d="m164.0 10.577428l320.0 0l0 180.0l-320.0 0z" fill-rule="evenodd"/><path fill="#3c78d8" d="m217.93701 30.123222l0 0c0 -1.5625572 1.2666931 -2.8292599 2.8292542 -2.8292599l88.82968 0c0.7503662 0 1.4700012 0.29808235 2.0005798 0.8286724c0.5305786 0.53058815 0.8286743 1.2502213 0.8286743 2.0005875l0 22.687939c0 1.5625572 -1.2666931 2.829258 -2.8292542 2.829258l-88.82968 0c-1.562561 0 -2.8292542 -1.2667007 -2.8292542 -2.829258z" fill-rule="evenodd"/><path fill="#ffffff" d="m244.80914 48.387188l0 -13.359375l2.65625 0l3.15625 9.453125q0.4375 1.328125 0.640625 1.984375q0.234375 -0.734375 0.703125 -2.140625l3.203125 -9.296875l2.375 0l0 13.359375l-1.703125 0l0 -11.171875l-3.875 11.171875l-1.59375 0l-3.859375 -11.375l0 11.375l-1.703125 0zm15.540802 0l0 -13.359375l2.65625 0l3.15625 9.453125q0.4375 1.328125 0.640625 1.984375q0.234375 -0.734375 0.703125 -2.140625l3.203125 -9.296875l2.375 0l0 13.359375l-1.703125 0l0 -11.171875l-3.875 11.171875l-1.59375 0l-3.859375 -11.375l0 11.375l-1.703125 0zm15.618927 0l0 -13.359375l9.65625 0l0 1.578125l-7.875 0l0 4.09375l7.375 0l0 1.5625l-7.375 0l0 4.546875l8.1875 0l0 1.578125l-9.96875 0z" fill-rule="nonzero"/><path fill="#3c78d8" d="m369.1181 30.789932l0 0c0 -1.9307709 1.5652161 -3.4959698 3.4959717 -3.4959698l87.49625 0c0.92718506 0 1.8164062 0.36832428 2.472046 1.0239468c0.65560913 0.6556206 1.0239258 1.5448341 1.0239258 2.472023l0 21.354519c0 1.9307709 -1.5651855 3.4959679 -3.4959717 3.4959679l-87.49625 0c-1.9307556 0 -3.4959717 -1.565197 -3.4959717 -3.4959679z" fill-rule="evenodd"/><path fill="#ffffff" d="m398.68216 48.387188l0 -13.359375l1.765625 0l0 5.484375l6.9375 0l0 -5.484375l1.765625 0l0 13.359375l-1.765625 0l0 -6.296875l-6.9375 0l0 6.296875l-1.765625 0zm12.816711 -4.296875l1.65625 -0.140625q0.125 1.0 0.546875 1.640625q0.4375 0.640625 1.34375 1.046875q0.921875 0.390625 2.0625 0.390625q1.0 0 1.78125 -0.296875q0.78125 -0.296875 1.15625 -0.8125q0.375 -0.53125 0.375 -1.15625q0 -0.625 -0.375 -1.09375q-0.359375 -0.46875 -1.1875 -0.796875q-0.546875 -0.203125 -2.390625 -0.640625q-1.828125 -0.453125 -2.5625 -0.84375q-0.96875 -0.5 -1.4375 -1.234375q-0.46875 -0.75 -0.46875 -1.671875q0 -1.0 0.578125 -1.875q0.578125 -0.890625 1.671875 -1.34375q1.109375 -0.453125 2.453125 -0.453125q1.484375 0 2.609375 0.484375q1.140625 0.46875 1.75 1.40625q0.609375 0.921875 0.65625 2.09375l-1.6875 0.125q-0.140625 -1.265625 -0.9375 -1.90625q-0.78125 -0.65625 -2.3125 -0.65625q-1.609375 0 -2.34375 0.59375q-0.734375 0.59375 -0.734375 1.421875q0 0.71875 0.53125 1.171875q0.5 0.46875 2.65625 0.96875q2.15625 0.484375 2.953125 0.84375q1.171875 0.53125 1.71875 1.359375q0.5625 0.828125 0.5625 1.90625q0 1.0625 -0.609375 2.015625q-0.609375 0.9375 -1.75 1.46875q-1.140625 0.515625 -2.578125 0.515625q-1.8125 0 -3.046875 -0.53125q-1.21875 -0.53125 -1.921875 -1.59375q-0.6875 -1.0625 -0.71875 -2.40625zm12.443573 0l1.65625 -0.140625q0.125 1.0 0.546875 1.640625q0.4375 0.640625 1.34375 1.046875q0.921875 0.390625 2.0625 0.390625q1.0 0 1.78125 -0.296875q0.78125 -0.296875 1.15625 -0.8125q0.375 -0.53125 0.375 -1.15625q0 -0.625 -0.375 -1.09375q-0.359375 -0.46875 -1.1875 -0.796875q-0.546875 -0.203125 -2.390625 -0.640625q-1.828125 -0.453125 -2.5625 -0.84375q-0.96875 -0.5 -1.4375 -1.234375q-0.46875 -0.75 -0.46875 -1.671875q0 -1.0 0.578125 -1.875q0.578125 -0.890625 1.671875 -1.34375q1.109375 -0.453125 2.453125 -0.453125q1.484375 0 2.609375 0.484375q1.140625 0.46875 1.75 1.40625q0.609375 0.921875 0.65625 2.09375l-1.6875 0.125q-0.140625 -1.265625 -0.9375 -1.90625q-0.78125 -0.65625 -2.3125 -0.65625q-1.609375 0 -2.34375 0.59375q-0.734375 0.59375 -0.734375 1.421875q0 0.71875 0.53125 1.171875q0.5 0.46875 2.65625 0.96875q2.15625 0.484375 2.953125 0.84375q1.171875 0.53125 1.71875 1.359375q0.5625 0.828125 0.5625 1.90625q0 1.0625 -0.609375 2.015625q-0.609375 0.9375 -1.75 1.46875q-1.140625 0.515625 -2.578125 0.515625q-1.8125 0 -3.046875 -0.53125q-1.21875 -0.53125 -1.921875 -1.59375q-0.6875 -1.0625 -0.71875 -2.40625z" fill-rule="nonzero"/><path fill="#3c78d8" d="m217.93701 105.713776l0 0c0 -1.562561 1.2666931 -2.8292618 2.8292542 -2.8292618l88.82968 0c0.7503662 0 1.4700012 0.29808044 2.0005798 0.8286743c0.5305786 0.53058624 0.8286743 1.2502213 0.8286743 2.0005875l0 22.687943c0 1.5625458 -1.2666931 2.8292542 -2.8292542 2.8292542l-88.82968 0c-1.562561 0 -2.8292542 -1.2667084 -2.8292542 -2.8292542z" fill-rule="evenodd"/><path fill="#ffffff" d="m240.63669 119.68086l1.65625 -0.140625q0.125 1.0 0.546875 1.640625q0.4375 0.640625 1.34375 1.046875q0.921875 0.390625 2.0625 0.390625q1.0 0 1.78125 -0.296875q0.78125 -0.296875 1.15625 -0.8125q0.375 -0.53125 0.375 -1.15625q0 -0.625 -0.375 -1.09375q-0.359375 -0.46875 -1.1875 -0.796875q-0.546875 -0.203125 -2.390625 -0.640625q-1.828125 -0.453125 -2.5625 -0.84375q-0.96875 -0.5 -1.4375 -1.234375q-0.46875 -0.75 -0.46875 -1.671875q0 -1.0 0.578125 -1.875q0.578125 -0.890625 1.671875 -1.34375q1.109375 -0.453125 2.453125 -0.453125q1.484375 0 2.609375 0.484375q1.140625 0.46875 1.75 1.40625q0.609375 0.921875 0.65625 2.09375l-1.6875 0.125q-0.140625 -1.265625 -0.9375 -1.90625q-0.78125 -0.65625 -2.3125 -0.65625q-1.609375 0 -2.34375 0.59375q-0.734375 0.59375 -0.734375 1.421875q0 0.71875 0.53125 1.171875q0.5 0.46875 2.65625 0.96875q2.15625 0.484375 2.953125 0.84375q1.171875 0.53125 1.71875 1.359375q0.5625 0.828125 0.5625 1.90625q0 1.0625 -0.609375 2.015625q-0.609375 0.9375 -1.75 1.46875q-1.140625 0.515625 -2.578125 0.515625q-1.8125 0 -3.046875 -0.53125q-1.21875 -0.53125 -1.921875 -1.59375q-0.6875 -1.0625 -0.71875 -2.40625zm12.193573 0.28125l0 -1.640625l5.03125 0l0 1.640625l-5.03125 0zm13.306427 -1.21875l0 -1.578125l5.65625 0l0 4.953125q-1.296875 1.046875 -2.6875 1.578125q-1.375 0.515625 -2.84375 0.515625q-1.96875 0 -3.578125 -0.84375q-1.609375 -0.84375 -2.421875 -2.4375q-0.8125 -1.59375 -0.8125 -3.5625q0 -1.953125 0.8125 -3.640625q0.8125 -1.6875 2.34375 -2.5q1.53125 -0.828125 3.515625 -0.828125q1.453125 0 2.625 0.46875q1.171875 0.46875 1.828125 1.3125q0.671875 0.828125 1.015625 2.171875l-1.59375 0.4375q-0.296875 -1.015625 -0.75 -1.59375q-0.4375 -0.59375 -1.265625 -0.9375q-0.828125 -0.34375 -1.84375 -0.34375q-1.203125 0 -2.09375 0.375q-0.890625 0.359375 -1.4375 0.96875q-0.53125 0.59375 -0.828125 1.3125q-0.515625 1.234375 -0.515625 2.6875q0 1.78125 0.609375 2.984375q0.625 1.203125 1.796875 1.796875q1.171875 0.578125 2.5 0.578125q1.140625 0 2.234375 -0.4375q1.09375 -0.453125 1.65625 -0.953125l0 -2.484375l-3.921875 0zm10.589539 5.234375l-3.53125 -13.359375l1.8125 0l2.03125 8.765625q0.328125 1.375 0.5625 2.71875q0.5 -2.140625 0.59375 -2.46875l2.546875 -9.015625l2.125 0l1.921875 6.765625q0.71875 2.515625 1.03125 4.71875q0.265625 -1.265625 0.671875 -2.890625l2.09375 -8.59375l1.78125 0l-3.671875 13.359375l-1.703125 0l-2.8125 -10.171875q-0.359375 -1.28125 -0.421875 -1.5625q-0.203125 0.90625 -0.390625 1.5625l-2.828125 10.171875l-1.8125 0z" fill-rule="nonzero"/><path fill="#3c78d8" d="m369.1181 105.713776l0 0c0 -1.562561 1.2667236 -2.8292618 2.8292542 -2.8292618l88.82968 0c0.7503662 0 1.4700012 0.29808044 2.0005798 0.8286743c0.53060913 0.53058624 0.8286743 1.2502213 0.8286743 2.0005875l0 22.687943c0 1.5625458 -1.2666931 2.8292542 -2.8292542 2.8292542l-88.82968 0c-1.5625305 0 -2.8292542 -1.2667084 -2.8292542 -2.8292542z" fill-rule="evenodd"/><path fill="#ffffff" d="m392.41153 123.97774l0 -13.359375l5.046875 0q1.328125 0 2.03125 0.125q0.96875 0.171875 1.640625 0.640625q0.671875 0.453125 1.078125 1.28125q0.40625 0.828125 0.40625 1.828125q0 1.703125 -1.09375 2.890625q-1.078125 1.171875 -3.921875 1.171875l-3.421875 0l0 5.421875l-1.765625 0zm1.765625 -7.0l3.453125 0q1.71875 0 2.4375 -0.640625q0.71875 -0.640625 0.71875 -1.796875q0 -0.84375 -0.421875 -1.4375q-0.421875 -0.59375 -1.125 -0.78125q-0.4375 -0.125 -1.640625 -0.125l-3.421875 0l0 4.78125zm9.834198 2.984375l0 -1.640625l5.03125 0l0 1.640625l-5.03125 0zm13.306427 -1.21875l0 -1.578125l5.65625 0l0 4.953125q-1.296875 1.046875 -2.6875 1.578125q-1.375 0.515625 -2.84375 0.515625q-1.96875 0 -3.578125 -0.84375q-1.609375 -0.84375 -2.421875 -2.4375q-0.8125 -1.59375 -0.8125 -3.5625q0 -1.953125 0.8125 -3.640625q0.8125 -1.6875 2.34375 -2.5q1.53125 -0.828125 3.515625 -0.828125q1.453125 0 2.625 0.46875q1.171875 0.46875 1.828125 1.3125q0.671875 0.828125 1.015625 2.171875l-1.59375 0.4375q-0.296875 -1.015625 -0.75 -1.59375q-0.4375 -0.59375 -1.265625 -0.9375q-0.828125 -0.34375 -1.84375 -0.34375q-1.203125 0 -2.09375 0.375q-0.890625 0.359375 -1.4375 0.96875q-0.53125 0.59375 -0.828125 1.3125q-0.515625 1.234375 -0.515625 2.6875q0 1.78125 0.609375 2.984375q0.625 1.203125 1.796875 1.796875q1.171875 0.578125 2.5 0.578125q1.140625 0 2.234375 -0.4375q1.09375 -0.453125 1.65625 -0.953125l0 -2.484375l-3.921875 0zm10.589569 5.234375l-3.53125 -13.359375l1.8125 0l2.03125 8.765625q0.328125 1.375 0.5625 2.71875q0.5 -2.140625 0.59375 -2.46875l2.546875 -9.015625l2.125 0l1.921875 6.765625q0.71875 2.515625 1.03125 4.71875q0.265625 -1.265625 0.671875 -2.890625l2.09375 -8.59375l1.78125 0l-3.671875 13.359375l-1.703125 0l-2.8125 -10.171875q-0.359375 -1.28125 -0.421875 -1.5625q-0.203125 0.90625 -0.390625 1.5625l-2.828125 10.171875l-1.8125 0z" fill-rule="nonzero"/><path fill="#cfe2f3" d="m542.64575 105.67766l0 0c-1.0401001 -5.485016 2.3747559 -10.914848 8.79541 -13.98542c6.4207153 -3.0705795 14.721252 -3.2433777 21.379395 -0.445076l0 0c2.3585205 -3.1892166 6.675293 -5.3911514 11.644592 -5.9397583c4.9692993 -0.5486145 10.007446 0.62054443 13.590515 3.1538086l0 0c2.0091553 -2.8915482 5.9541626 -4.834305 10.43512 -5.1388626c4.480957 -0.30456543 8.8637085 1.0721588 11.593018 3.6416397l0 0c3.6298218 -3.065033 9.404968 -4.355545 14.826538 -3.3131104c5.421509 1.0424271 9.515686 4.230568 10.510864 8.184891l0 0c4.4471436 0.87047577 8.15155 3.0833588 10.156067 6.06691c2.0045166 2.9835434 2.1125488 6.4450684 0.29614258 9.490234l0 0c4.3791504 4.089981 5.4035645 9.539841 2.690918 14.315781c-2.7126465 4.77594 -8.754822 8.160431 -15.871643 8.890442c-0.0501709 4.482376 -3.47583 8.595367 -8.956604 10.753632c-5.480774 2.158249 -12.160767 2.024765 -17.465271 -0.34901428c-2.2594604 5.3684387 -8.619019 9.318481 -16.331177 10.14357c-7.712158 0.82507324 -15.394287 -1.6226959 -19.727478 -6.2858276c-5.3115845 2.2984772 -11.685059 2.9605865 -17.682617 1.8369904c-5.9976196 -1.1235962 -11.114197 -3.938263 -14.195496 -7.8090515l0 0c-5.4277344 0.4557953 -10.675659 -1.5622101 -13.13916 -5.0525055c-2.463501 -3.4902802 -1.6182251 -7.7098465 2.116333 -10.564529l0 0c-4.841675 -2.04496 -7.312256 -6.102844 -6.123291 -10.057617c1.1889038 -3.954773 5.7678833 -6.9102783 11.349182 -7.3253326z" fill-rule="evenodd"/><path fill="#000000" fill-opacity="0.0" d="m537.3126 123.27201l0 0c2.28479 0.9650192 4.9243164 1.4027786 7.564087 1.2544937m3.4575195 14.3628845c1.1352539 -0.095321655 2.2479248 -0.29719543 3.3094482 -0.60040283m28.567078 6.57222c-0.7984619 -0.8592224 -1.466919 -1.7773743 -1.9940796 -2.7388153m38.054077 -1.1190948l0 0c0.41192627 -0.9787445 0.678833 -1.986084 0.79626465 -3.0052185m25.624695 -7.3990173c0.05340576 -4.7722015 -3.723755 -9.14167 -9.709045 -11.231606m22.889587 -11.974113c-0.9692993 1.6250229 -2.4490356 3.0665512 -4.323181 4.2115784m-6.128113 -19.76915l0 0c0.16516113 0.6562195 0.24157715 1.3223038 0.22827148 1.9890137m-25.565247 -6.8605957l0 0c-0.90545654 0.76457214 -1.6514282 1.6189728 -2.2147217 2.5365982m-19.81366 -1.039711l0 0c-0.48254395 0.694458 -0.8428345 1.4293137 -1.0726318 2.1876373m-24.16278 0.5983734l0 0c1.4088745 0.5921173 2.7122192 1.3047943 3.8815308 2.1223755m-34.05597 12.308197l0 0c0.14337158 0.75598145 0.36987305 1.5026398 0.67736816 2.2329865" fill-rule="evenodd"/><path stroke="#000000" stroke-width="1.0" stroke-linejoin="round" stroke-linecap="butt" d="m542.64575 105.67766l0 0c-1.0401001 -5.485016 2.3747559 -10.914848 8.79541 -13.98542c6.4207153 -3.0705795 14.721252 -3.2433777 21.379395 -0.445076l0 0c2.3585205 -3.1892166 6.675293 -5.3911514 11.644592 -5.9397583c4.9692993 -0.5486145 10.007446 0.62054443 13.590515 3.1538086l0 0c2.0091553 -2.8915482 5.9541626 -4.834305 10.43512 -5.1388626c4.480957 -0.30456543 8.8637085 1.0721588 11.593018 3.6416397l0 0c3.6298218 -3.065033 9.404968 -4.355545 14.826538 -3.3131104c5.421509 1.0424271 9.515686 4.230568 10.510864 8.184891l0 0c4.4471436 0.87047577 8.15155 3.0833588 10.156067 6.06691c2.0045166 2.9835434 2.1125488 6.4450684 0.29614258 9.490234l0 0c4.3791504 4.089981 5.4035645 9.539841 2.690918 14.315781c-2.7126465 4.77594 -8.754822 8.160431 -15.871643 8.890442c-0.0501709 4.482376 -3.47583 8.595367 -8.956604 10.753632c-5.480774 2.158249 -12.160767 2.024765 -17.465271 -0.34901428c-2.2594604 5.3684387 -8.619019 9.318481 -16.331177 10.14357c-7.712158 0.82507324 -15.394287 -1.6226959 -19.727478 -6.2858276c-5.3115845 2.2984772 -11.685059 2.9605865 -17.682617 1.8369904c-5.9976196 -1.1235962 -11.114197 -3.938263 -14.195496 -7.8090515l0 0c-5.4277344 0.4557953 -10.675659 -1.5622101 -13.13916 -5.0525055c-2.463501 -3.4902802 -1.6182251 -7.7098465 2.116333 -10.564529l0 0c-4.841675 -2.04496 -7.312256 -6.102844 -6.123291 -10.057617c1.1889038 -3.954773 5.7678833 -6.9102783 11.349182 -7.3253326z" fill-rule="evenodd"/><path stroke="#000000" stroke-width="1.0" stroke-linejoin="round" stroke-linecap="butt" d="m537.3126 123.27201l0 0c2.28479 0.9650192 4.9243164 1.4027786 7.564087 1.2544937m3.4575195 14.3628845c1.1352539 -0.095321655 2.2479248 -0.29719543 3.3094482 -0.60040283m28.567078 6.57222c-0.7984619 -0.8592224 -1.466919 -1.7773743 -1.9940796 -2.7388153m38.054077 -1.1190948l0 0c0.41192627 -0.9787445 0.678833 -1.986084 0.79626465 -3.0052185m25.624695 -7.3990173c0.05340576 -4.7722015 -3.723755 -9.14167 -9.709045 -11.231606m22.889587 -11.974113c-0.9692993 1.6250229 -2.4490356 3.0665512 -4.323181 4.2115784m-6.128113 -19.76915l0 0c0.16516113 0.6562195 0.24157715 1.3223038 0.22827148 1.9890137m-25.565247 -6.8605957l0 0c-0.90545654 0.76457214 -1.6514282 1.6189728 -2.2147217 2.5365982m-19.81366 -1.039711l0 0c-0.48254395 0.694458 -0.8428345 1.4293137 -1.0726318 2.1876373m-24.16278 0.5983734l0 0c1.4088745 0.5921173 2.7122192 1.3047943 3.8815308 2.1223755m-34.05597 12.308197l0 0c0.14337158 0.75598145 0.36987305 1.5026398 0.67736816 2.2329865" fill-rule="evenodd"/><path fill="#000000" d="m559.51355 122.40221l0 -13.359375l1.765625 0l0 13.359375l-1.765625 0zm4.6832886 0l0 -9.671875l1.46875 0l0 1.375q1.0625 -1.59375 3.078125 -1.59375q0.875 0 1.609375 0.3125q0.734375 0.3125 1.09375 0.828125q0.375 0.5 0.515625 1.203125q0.09375 0.453125 0.09375 1.59375l0 5.953125l-1.640625 0l0 -5.890625q0 -1.0 -0.203125 -1.484375q-0.1875 -0.5 -0.671875 -0.796875q-0.484375 -0.296875 -1.140625 -0.296875q-1.046875 0 -1.8125 0.671875q-0.75 0.65625 -0.75 2.515625l0 5.28125l-1.640625 0zm13.953857 -1.46875l0.234375 1.453125q-0.6875 0.140625 -1.234375 0.140625q-0.890625 0 -1.390625 -0.28125q-0.484375 -0.28125 -0.6875 -0.734375q-0.203125 -0.46875 -0.203125 -1.9375l0 -5.578125l-1.203125 0l0 -1.265625l1.203125 0l0 -2.390625l1.625 -0.984375l0 3.375l1.65625 0l0 1.265625l-1.65625 0l0 5.671875q0 0.6875 0.078125 0.890625q0.09375 0.203125 0.28125 0.328125q0.203125 0.109375 0.578125 0.109375q0.265625 0 0.71875 -0.0625zm8.230164 -1.640625l1.6875 0.203125q-0.40625 1.484375 -1.484375 2.3125q-1.078125 0.8125 -2.765625 0.8125q-2.125 0 -3.375 -1.296875q-1.234375 -1.3125 -1.234375 -3.671875q0 -2.453125 1.25 -3.796875q1.265625 -1.34375 3.265625 -1.34375q1.9375 0 3.15625 1.328125q1.234375 1.3125 1.234375 3.703125q0 0.15625 0 0.4375l-7.21875 0q0.09375 1.59375 0.90625 2.453125q0.8125 0.84375 2.015625 0.84375q0.90625 0 1.546875 -0.46875q0.640625 -0.484375 1.015625 -1.515625zm-5.390625 -2.65625l5.40625 0q-0.109375 -1.21875 -0.625 -1.828125q-0.78125 -0.953125 -2.03125 -0.953125q-1.125 0 -1.90625 0.765625q-0.765625 0.75 -0.84375 2.015625zm9.125732 5.765625l0 -9.671875l1.46875 0l0 1.46875q0.5625 -1.03125 1.03125 -1.359375q0.484375 -0.328125 1.0625 -0.328125q0.828125 0 1.6875 0.53125l-0.5625 1.515625q-0.609375 -0.359375 -1.203125 -0.359375q-0.546875 0 -0.96875 0.328125q-0.421875 0.328125 -0.609375 0.890625q-0.28125 0.875 -0.28125 1.921875l0 5.0625l-1.625 0zm6.2283325 0l0 -9.671875l1.46875 0l0 1.375q1.0625 -1.59375 3.078125 -1.59375q0.875 0 1.609375 0.3125q0.734375 0.3125 1.09375 0.828125q0.375 0.5 0.515625 1.203125q0.09375 0.453125 0.09375 1.59375l0 5.953125l-1.640625 0l0 -5.890625q0 -1.0 -0.203125 -1.484375q-0.1875 -0.5 -0.671875 -0.796875q-0.484375 -0.296875 -1.140625 -0.296875q-1.046875 0 -1.8125 0.671875q-0.75 0.65625 -0.75 2.515625l0 5.28125l-1.640625 0zm17.000671 -3.109375l1.6875 0.203125q-0.40625 1.484375 -1.484375 2.3125q-1.078125 0.8125 -2.765625 0.8125q-2.125 0 -3.375 -1.296875q-1.234375 -1.3125 -1.234375 -3.671875q0 -2.453125 1.25 -3.796875q1.265625 -1.34375 3.265625 -1.34375q1.9375 0 3.15625 1.328125q1.234375 1.3125 1.234375 3.703125q0 0.15625 0 0.4375l-7.21875 0q0.09375 1.59375 0.90625 2.453125q0.8125 0.84375 2.015625 0.84375q0.90625 0 1.546875 -0.46875q0.640625 -0.484375 1.015625 -1.515625zm-5.390625 -2.65625l5.40625 0q-0.109375 -1.21875 -0.625 -1.828125q-0.78125 -0.953125 -2.03125 -0.953125q-1.125 0 -1.90625 0.765625q-0.765625 0.75 -0.84375 2.015625zm12.719482 4.296875l0.234375 1.453125q-0.6875 0.140625 -1.234375 0.140625q-0.890625 0 -1.390625 -0.28125q-0.484375 -0.28125 -0.6875 -0.734375q-0.203125 -0.46875 -0.203125 -1.9375l0 -5.578125l-1.203125 0l0 -1.265625l1.203125 0l0 -2.390625l1.625 -0.984375l0 3.375l1.65625 0l0 1.265625l-1.65625 0l0 5.671875q0 0.6875 0.078125 0.890625q0.09375 0.203125 0.28125 0.328125q0.203125 0.109375 0.578125 0.109375q0.265625 0 0.71875 -0.0625z" fill-rule="nonzero"/><path fill="#000000" fill-opacity="0.0" d="m312.4252 117.05774l56.6929 0" fill-rule="evenodd"/><path stroke="#000000" stroke-width="1.0" stroke-linejoin="round" stroke-linecap="butt" d="m312.4252 117.05774l56.6929 0" fill-rule="evenodd"/><path fill="#000000" fill-opacity="0.0" d="m312.4252 41.46719l56.6929 0" fill-rule="evenodd"/><path stroke="#000000" stroke-width="1.0" stroke-linejoin="round" stroke-linecap="butt" d="m312.4252 41.46719l56.6929 0" fill-rule="evenodd"/><path fill="#000000" fill-opacity="0.0" d="m265.1811 55.64042l0 47.244095" fill-rule="evenodd"/><path stroke="#000000" stroke-width="1.0" stroke-linejoin="round" stroke-linecap="butt" d="m265.1811 55.64042l0 47.244095" fill-rule="evenodd"/><path fill="#000000" fill-opacity="0.0" d="m217.93701 41.46719l-89.70079 75.590546" fill-rule="evenodd"/><path stroke="#000000" stroke-width="1.0" stroke-linejoin="round" stroke-linecap="butt" d="m217.93701 41.46719l-89.70079 75.590546" fill-rule="evenodd"/><path fill="#000000" fill-opacity="0.0" d="m217.93701 117.05774l-89.70079 0" fill-rule="evenodd"/><path stroke="#000000" stroke-width="1.0" stroke-linejoin="round" stroke-linecap="butt" d="m217.93701 117.05774l-89.70079 0" fill-rule="evenodd"/><path fill="#000000" fill-opacity="0.0" d="m463.6063 117.05774l67.77951 0" fill-rule="evenodd"/><path stroke="#000000" stroke-width="1.0" stroke-linejoin="round" stroke-linecap="butt" d="m463.6063 117.05774l67.77951 0" fill-rule="evenodd"/><path fill="#000000" fill-opacity="0.0" d="m308.26773 10.671916l65.00787 0l0 37.007874l-65.00787 0z" fill-rule="evenodd"/><path fill="#6d9eeb" d="m329.50806 30.913353l1.203125 -0.109375q0.078125 0.71875 0.390625 1.1875q0.3125 0.453125 0.953125 0.734375q0.65625 0.28125 1.46875 0.28125q0.71875 0 1.265625 -0.21875q0.5625 -0.21875 0.828125 -0.578125q0.265625 -0.375 0.265625 -0.828125q0 -0.453125 -0.265625 -0.78125q-0.25 -0.328125 -0.84375 -0.5625q-0.390625 -0.15625 -1.703125 -0.46875q-1.3125 -0.3125 -1.84375 -0.59375q-0.671875 -0.359375 -1.015625 -0.890625q-0.328125 -0.53125 -0.328125 -1.1875q0 -0.71875 0.40625 -1.34375q0.40625 -0.625 1.1875 -0.953125q0.796875 -0.328125 1.765625 -0.328125q1.046875 0 1.859375 0.34375q0.8125 0.34375 1.25 1.015625q0.4375 0.65625 0.46875 1.484375l-1.203125 0.09375q-0.109375 -0.90625 -0.671875 -1.359375q-0.5625 -0.46875 -1.65625 -0.46875q-1.140625 0 -1.671875 0.421875q-0.515625 0.421875 -0.515625 1.015625q0 0.515625 0.359375 0.84375q0.375 0.328125 1.90625 0.6875q1.546875 0.34375 2.109375 0.59375q0.84375 0.390625 1.234375 0.984375q0.390625 0.578125 0.390625 1.359375q0 0.75 -0.4375 1.4375q-0.421875 0.671875 -1.25 1.046875q-0.8125 0.359375 -1.828125 0.359375q-1.296875 0 -2.171875 -0.375q-0.875 -0.375 -1.375 -1.125q-0.5 -0.765625 -0.53125 -1.71875zm14.92099 -4.140625l-1.15625 0.09375q-0.15625 -0.6875 -0.4375 -1.0q-0.484375 -0.5 -1.171875 -0.5q-0.5625 0 -0.984375 0.3125q-0.5625 0.390625 -0.890625 1.171875q-0.3125 0.765625 -0.3125 2.203125q0.421875 -0.640625 1.03125 -0.953125q0.609375 -0.3125 1.28125 -0.3125q1.171875 0 1.984375 0.859375q0.828125 0.859375 0.828125 2.234375q0 0.890625 -0.390625 1.671875q-0.375 0.765625 -1.0625 1.171875q-0.671875 0.40625 -1.53125 0.40625q-1.46875 0 -2.390625 -1.0625q-0.921875 -1.078125 -0.921875 -3.5625q0 -2.765625 1.015625 -4.015625q0.90625 -1.09375 2.40625 -1.09375q1.125 0 1.84375 0.640625q0.71875 0.625 0.859375 1.734375zm-4.78125 4.109375q0 0.609375 0.25 1.171875q0.265625 0.546875 0.71875 0.84375q0.46875 0.28125 0.984375 0.28125q0.734375 0 1.265625 -0.59375q0.546875 -0.609375 0.546875 -1.640625q0 -0.984375 -0.53125 -1.546875q-0.53125 -0.578125 -1.328125 -0.578125q-0.796875 0 -1.359375 0.578125q-0.546875 0.5625 -0.546875 1.484375zm10.959351 2.234375q-0.65625 0.5625 -1.265625 0.796875q-0.59375 0.21875 -1.28125 0.21875q-1.140625 0 -1.75 -0.546875q-0.609375 -0.5625 -0.609375 -1.4375q0 -0.5 0.21875 -0.921875q0.234375 -0.421875 0.609375 -0.671875q0.375 -0.25 0.84375 -0.390625q0.34375 -0.078125 1.046875 -0.171875q1.421875 -0.171875 2.09375 -0.40625q0 -0.234375 0 -0.296875q0 -0.71875 -0.328125 -1.015625q-0.453125 -0.390625 -1.34375 -0.390625q-0.8125 0 -1.21875 0.296875q-0.390625 0.28125 -0.578125 1.015625l-1.140625 -0.15625q0.15625 -0.734375 0.515625 -1.1875q0.359375 -0.453125 1.03125 -0.6875q0.671875 -0.25 1.5625 -0.25q0.890625 0 1.4375 0.203125q0.5625 0.203125 0.8125 0.53125q0.265625 0.3125 0.375 0.796875q0.046875 0.296875 0.046875 1.078125l0 1.5625q0 1.625 0.078125 2.0625q0.078125 0.4375 0.296875 0.828125l-1.21875 0q-0.1875 -0.359375 -0.234375 -0.859375zm-0.09375 -2.609375q-0.640625 0.265625 -1.921875 0.4375q-0.71875 0.109375 -1.015625 0.25q-0.296875 0.125 -0.46875 0.375q-0.15625 0.25 -0.15625 0.546875q0 0.46875 0.34375 0.78125q0.359375 0.3125 1.046875 0.3125q0.671875 0 1.203125 -0.296875q0.53125 -0.296875 0.78125 -0.8125q0.1875 -0.390625 0.1875 -1.171875l0 -0.421875z" fill-rule="nonzero"/><path fill="#000000" fill-opacity="0.0" d="m308.26773 82.85302l65.00787 0l0 37.007874l-65.00787 0z" fill-rule="evenodd"/><path fill="#6d9eeb" d="m323.21167 103.09445l1.203125 -0.109375q0.078125 0.71875 0.390625 1.1875q0.3125 0.453125 0.953125 0.734375q0.65625 0.28125 1.46875 0.28125q0.71875 0 1.265625 -0.21875q0.5625 -0.21875 0.828125 -0.578125q0.265625 -0.375 0.265625 -0.828125q0 -0.453125 -0.265625 -0.78125q-0.25 -0.328125 -0.84375 -0.5625q-0.390625 -0.15625 -1.703125 -0.46875q-1.3125 -0.3125 -1.84375 -0.59375q-0.671875 -0.359375 -1.015625 -0.890625q-0.328125 -0.53125 -0.328125 -1.1875q0 -0.71875 0.40625 -1.34375q0.40625 -0.625 1.1875 -0.953125q0.796875 -0.328125 1.765625 -0.328125q1.046875 0 1.859375 0.34375q0.8125 0.34375 1.25 1.015625q0.4375 0.65625 0.46875 1.484375l-1.203125 0.09375q-0.109375 -0.90625 -0.671875 -1.359375q-0.5625 -0.46875 -1.65625 -0.46875q-1.140625 0 -1.671875 0.421875q-0.515625 0.421875 -0.515625 1.015625q0 0.515625 0.359375 0.84375q0.375 0.328125 1.90625 0.6875q1.546875 0.34375 2.109375 0.59375q0.84375 0.390625 1.234375 0.984375q0.390625 0.578125 0.390625 1.359375q0 0.75 -0.4375 1.4375q-0.421875 0.671875 -1.25 1.046875q-0.8125 0.359375 -1.828125 0.359375q-1.296875 0 -2.171875 -0.375q-0.875 -0.375 -1.375 -1.125q-0.5 -0.765625 -0.53125 -1.71875zm8.8428955 0.5625l1.234375 -0.109375q0.140625 0.90625 0.640625 1.359375q0.5 0.453125 1.203125 0.453125q0.84375 0 1.421875 -0.640625q0.59375 -0.640625 0.59375 -1.6875q0 -1.0 -0.5625 -1.578125q-0.5625 -0.59375 -1.484375 -0.59375q-0.5625 0 -1.015625 0.265625q-0.453125 0.25 -0.71875 0.671875l-1.09375 -0.15625l0.921875 -4.890625l4.75 0l0 1.109375l-3.8125 0l-0.515625 2.5625q0.859375 -0.59375 1.796875 -0.59375q1.25 0 2.109375 0.875q0.859375 0.859375 0.859375 2.21875q0 1.296875 -0.75 2.234375q-0.921875 1.15625 -2.5 1.15625q-1.3125 0 -2.140625 -0.71875q-0.8125 -0.734375 -0.9375 -1.9375zm6.8656006 2.65625l2.765625 -9.859375l0.9375 0l-2.765625 9.859375l-0.9375 0zm4.2967224 -3.21875l1.203125 -0.109375q0.078125 0.71875 0.390625 1.1875q0.3125 0.453125 0.953125 0.734375q0.65625 0.28125 1.46875 0.28125q0.71875 0 1.265625 -0.21875q0.5625 -0.21875 0.828125 -0.578125q0.265625 -0.375 0.265625 -0.828125q0 -0.453125 -0.265625 -0.78125q-0.25 -0.328125 -0.84375 -0.5625q-0.390625 -0.15625 -1.703125 -0.46875q-1.3125 -0.3125 -1.84375 -0.59375q-0.671875 -0.359375 -1.015625 -0.890625q-0.328125 -0.53125 -0.328125 -1.1875q0 -0.71875 0.40625 -1.34375q0.40625 -0.625 1.1875 -0.953125q0.796875 -0.328125 1.765625 -0.328125q1.046875 0 1.859375 0.34375q0.8125 0.34375 1.25 1.015625q0.4375 0.65625 0.46875 1.484375l-1.203125 0.09375q-0.109375 -0.90625 -0.671875 -1.359375q-0.5625 -0.46875 -1.65625 -0.46875q-1.140625 0 -1.671875 0.421875q-0.515625 0.421875 -0.515625 1.015625q0 0.515625 0.359375 0.84375q0.375 0.328125 1.90625 0.6875q1.546875 0.34375 2.109375 0.59375q0.84375 0.390625 1.234375 0.984375q0.390625 0.578125 0.390625 1.359375q0 0.75 -0.4375 1.4375q-0.421875 0.671875 -1.25 1.046875q-0.8125 0.359375 -1.828125 0.359375q-1.296875 0 -2.171875 -0.375q-0.875 -0.375 -1.375 -1.125q-0.5 -0.765625 -0.53125 -1.71875zm10.6553955 -2.109375q-0.734375 -0.265625 -1.09375 -0.765625q-0.34375 -0.5 -0.34375 -1.1875q0 -1.03125 0.75 -1.734375q0.75 -0.71875 1.984375 -0.71875q1.25 0 2.015625 0.734375q0.765625 0.71875 0.765625 1.75q0 0.671875 -0.359375 1.171875q-0.34375 0.484375 -1.046875 0.75q0.875 0.28125 1.328125 0.921875q0.46875 0.640625 0.46875 1.515625q0 1.234375 -0.875 2.0625q-0.859375 0.828125 -2.265625 0.828125q-1.421875 0 -2.28125 -0.828125q-0.859375 -0.84375 -0.859375 -2.09375q0 -0.921875 0.46875 -1.546875q0.46875 -0.640625 1.34375 -0.859375zm-0.234375 -1.984375q0 0.671875 0.4375 1.109375q0.4375 0.421875 1.125 0.421875q0.671875 0 1.109375 -0.421875q0.4375 -0.421875 0.4375 -1.046875q0 -0.640625 -0.453125 -1.078125q-0.4375 -0.4375 -1.109375 -0.4375q-0.671875 0 -1.109375 0.4375q-0.4375 0.421875 -0.4375 1.015625zm-0.375 4.40625q0 0.5 0.234375 0.96875q0.234375 0.46875 0.703125 0.734375q0.46875 0.25 1.015625 0.25q0.828125 0 1.375 -0.53125q0.546875 -0.546875 0.546875 -1.390625q0 -0.84375 -0.5625 -1.390625q-0.5625 -0.5625 -1.40625 -0.5625q-0.828125 0 -1.375 0.546875q-0.53125 0.546875 -0.53125 1.375z" fill-rule="nonzero"/><path fill="#000000" fill-opacity="0.0" d="m257.937 60.75853l46.078735 0l0 37.007874l-46.078735 0z" fill-rule="evenodd"/><path fill="#6d9eeb" d="m270.20755 80.99997l1.203125 -0.109375q0.078125 0.71875 0.390625 1.1875q0.3125 0.453125 0.953125 0.734375q0.65625 0.28125 1.46875 0.28125q0.71875 0 1.265625 -0.21875q0.5625 -0.21875 0.828125 -0.578125q0.265625 -0.375 0.265625 -0.828125q0 -0.453125 -0.265625 -0.78125q-0.25 -0.328125 -0.84375 -0.5625q-0.390625 -0.15625 -1.703125 -0.46875q-1.3125 -0.3125 -1.84375 -0.59375q-0.671875 -0.359375 -1.015625 -0.890625q-0.328125 -0.53125 -0.328125 -1.1875q0 -0.71875 0.40625 -1.34375q0.40625 -0.625 1.1875 -0.953125q0.796875 -0.328125 1.765625 -0.328125q1.046875 0 1.859375 0.34375q0.8125 0.34375 1.25 1.015625q0.4375 0.65625 0.46875 1.484375l-1.203125 0.09375q-0.109375 -0.90625 -0.671875 -1.359375q-0.5625 -0.46875 -1.65625 -0.46875q-1.140625 0 -1.671875 0.421875q-0.515625 0.421875 -0.515625 1.015625q0 0.515625 0.359375 0.84375q0.375 0.328125 1.90625 0.6875q1.546875 0.34375 2.109375 0.59375q0.84375 0.390625 1.234375 0.984375q0.390625 0.578125 0.390625 1.359375q0 0.75 -0.4375 1.4375q-0.421875 0.671875 -1.25 1.046875q-0.8125 0.359375 -1.828125 0.359375q-1.296875 0 -2.171875 -0.375q-0.875 -0.375 -1.375 -1.125q-0.5 -0.765625 -0.53125 -1.71875zm13.2647705 3.0625l-1.171875 0l0 -7.46875q-0.421875 0.40625 -1.109375 0.8125q-0.6875 0.40625 -1.234375 0.609375l0 -1.140625q0.984375 -0.453125 1.71875 -1.109375q0.734375 -0.671875 1.03125 -1.28125l0.765625 0l0 9.578125zm6.422882 0l-1.171875 0l0 -7.46875q-0.421875 0.40625 -1.109375 0.8125q-0.6875 0.40625 -1.234375 0.609375l0 -1.140625q0.984375 -0.453125 1.71875 -1.109375q0.734375 -0.671875 1.03125 -1.28125l0.765625 0l0 9.578125z" fill-rule="nonzero"/><path fill="#000000" fill-opacity="0.0" d="m151.49345 57.53849l62.519684 -51.338585l23.527557 28.598425l-62.519684 51.338585z" fill-rule="evenodd"/><path fill="#6d9eeb" d="m181.19508 59.35611l0.86032104 -0.8479881q0.51701355 0.5054779 1.0563354 0.6691513q0.5293884 0.15160751 1.2031555 -0.03774643q0.68585205 -0.19927216 1.3137817 -0.71489716q0.5554657 -0.45612717 0.8391266 -0.97211075q0.29574585 -0.5259018 0.27270508 -0.9720001q-0.032958984 -0.4581604 -0.3208313 -0.8080864q-0.28788757 -0.349926 -0.70162964 -0.43475342q-0.40167236 -0.09473801 -1.0094452 0.10106659q-0.40115356 0.12723541 -1.6140289 0.71883774q-1.2128754 0.5916023 -1.802124 0.71154785q-0.7475586 0.1488533 -1.3507385 -0.043254852q-0.591095 -0.20202255 -1.0080261 -0.7088127q-0.45663452 -0.5550537 -0.53974915 -1.2955208q-0.083114624 -0.7404709 0.31219482 -1.4896584q0.4073944 -0.75910187 1.1560669 -1.3738861q0.8090515 -0.66436005 1.655365 -0.9145241q0.8463135 -0.25016403 1.6112823 -0.0089530945q0.75505066 0.22914505 1.3053131 0.8488312l-0.87023926 0.8359184q-0.6602936 -0.63043976 -1.3828888 -0.623394q-0.7325134 -0.0050201416 -1.5778046 0.6890907q-0.88150024 0.7238579 -1.0240479 1.3867874q-0.13046265 0.65301514 0.24676514 1.1115417q0.32759094 0.39818954 0.81378174 0.42351913q0.49827576 0.015415192 1.9099884 -0.67881393q1.4138641 -0.7162094 2.0074005 -0.8801155q0.9002533 -0.23379898 1.579361 -0.023170471q0.6691742 0.1985588 1.1655273 0.8018799q0.4764862 0.5791893 0.57514954 1.3877525q0.10083008 0.78658295 -0.30093384 1.6017189q-0.39959717 0.79315186 -1.1845093 1.4376831q-1.0022583 0.8230133 -1.9167328 1.0887108q-0.9144592 0.26569366 -1.7773743 0.0038146973q-0.87283325 -0.27394867 -1.5025177 -0.9901657zm12.197052 -6.0529976l-0.9056549 0.7436905l-4.745056 -5.767742q-0.06793213 0.58145523 -0.341156 1.3314819q-0.27322388 0.7500229 -0.566803 1.2539406l-0.7246704 -0.88084793q0.47286987 -0.97462463 0.6234894 -1.9474564q0.14068604 -0.9849014 -0.01701355 -1.6438942l0.59169006 -0.48587418l6.0851746 7.396702zm0.397995 -4.026703l-0.7544403 -0.9170456l2.777359 -2.2806473l0.7544403 0.9170456l-2.777359 2.2806473zm4.9086 -0.33086014l-3.2396545 -9.692883l1.0505676 -0.8626785l9.0841675 4.8936043l-1.1109314 0.91225815l-2.6938324 -1.5282555l-3.079239 2.5285416l1.02742 2.8966484l-1.0384979 0.8527641zm-0.36636353 -4.773857l2.4996185 -2.0525856l-2.45047 -1.4046059q-1.1145477 -0.641552 -1.7700348 -1.0939827q0.43086243 0.81884 0.7530365 1.7269249l0.96784973 2.8242493zm8.045685 -1.5320778l-6.065323 -7.37257l2.777359 -2.2806473q0.7366028 -0.604866 1.1825714 -0.8497772q0.622818 -0.34968185 1.1935425 -0.3937626q0.5827942 -0.05399704 1.1773834 0.22603989q0.6066437 0.27012062 1.05336 0.81311226q0.774292 0.94117737 0.7065735 2.0885544q-0.055648804 1.1374626 -1.6254578 2.426525l-1.8837585 1.546875l2.461853 2.992466l-0.97810364 0.8031845zm-2.1984863 -4.6644325l1.8958435 -1.5567894q0.95396423 -0.7833519 1.0645752 -1.4605026q0.10067749 -0.6892128 -0.41552734 -1.3166656q-0.387146 -0.4705925 -0.89668274 -0.59806824q-0.49745178 -0.13739014 -0.97320557 0.07131958q-0.30107117 0.12591934 -0.9652252 0.67129135l-1.8837738 1.546875l2.173996 2.64254z" fill-rule="nonzero"/><path fill="#000000" fill-opacity="0.0" d="m157.01645 113.95646l80.91339 0.06299591l0 37.039368l-80.91339 -0.06298828z" fill-rule="evenodd"/><path fill="#6d9eeb" d="m182.88403 134.23378l1.203125 -0.108428955q0.078125 0.71881104 0.390625 1.1878052q0.3125 0.45336914 0.953125 0.7351074q0.65625 0.2817688 1.46875 0.2823944q0.71873474 5.645752E-4 1.2656097 -0.21775818q0.5625 -0.2183075 0.828125 -0.57748413q0.265625 -0.37478638 0.265625 -0.8279114q0 -0.453125 -0.265625 -0.7814636q-0.25 -0.32832336 -0.84375 -0.5631561q-0.390625 -0.15655518 -1.7031097 -0.4700775q-1.3125 -0.31352234 -1.84375 -0.5951843q-0.671875 -0.3598938 -1.015625 -0.89141846q-0.328125 -0.5315094 -0.328125 -1.1877594q0 -0.71875 0.40625 -1.3434296q0.40625 -0.62467957 1.1875 -0.95220184q0.796875 -0.3274994 1.765625 -0.32674408q1.0468597 8.087158E-4 1.8593597 0.34519196q0.8125 0.34438324 1.25 1.0165939q0.4375 0.65660095 0.46875 1.4847412l-1.203125 0.092819214q-0.109375 -0.90634155 -0.671875 -1.3598938q-0.5625 -0.4691925 -1.6562347 -0.470047q-1.140625 -8.8500977E-4 -1.671875 0.420578q-0.515625 0.42147827 -0.515625 1.0152283q0 0.515625 0.359375 0.84402466q0.375 0.32841492 1.90625 0.6889801q1.5468597 0.34495544 2.1093597 0.59539795q0.84375 0.39128113 1.234375 0.9853363q0.390625 0.5784302 0.390625 1.3596802q0 0.75 -0.4375 1.4371643q-0.421875 0.6715393 -1.25 1.0458984q-0.8125 0.35873413 -1.8281097 0.35795593q-1.296875 -0.0010223389 -2.171875 -0.37669373q-0.875 -0.37568665 -1.375 -1.1260681q-0.5 -0.7660217 -0.53125 -1.7191772zm13.26474 3.0728302l-1.171875 -9.1552734E-4l0 -7.46875q-0.421875 0.40592957 -1.109375 0.8116455q-0.6875 0.40571594 -1.234375 0.6084137l0 -1.140625q0.984375 -0.45236206 1.71875 -1.1080475q0.734375 -0.67129517 1.03125 -1.2804413l0.765625 5.950928E-4l0 9.578125zm2.8656006 -2.8571472l0 -1.1875l3.59375 0.0028076172l0 1.1875l-3.59375 -0.0028076172zm11.297745 -6.6787033l1.265625 9.918213E-4l0 5.5156174q0 1.4375 -0.328125 2.2966309q-0.3125 0.84350586 -1.171875 1.3740845q-0.84375 0.5149689 -2.21875 0.51390076q-1.34375 -0.0010528564 -2.203125 -0.45484924q-0.84375 -0.46940613 -1.21875 -1.344696q-0.359375 -0.87527466 -0.359375 -2.3908997l0 -5.5156326l1.265625 9.841919E-4l0 5.515625q0 1.234375 0.21875 1.8282928q0.234375 0.5939331 0.796875 0.9225006q0.5625 0.3129425 1.390625 0.31358337q1.390625 0.001083374 1.96875 -0.62345886q0.59375 -0.64016724 0.59375 -2.4370422l0 -5.5156326z" fill-rule="nonzero"/><path fill="#3c78d8" d="m33.755905 89.844826l0 0c0 -3.7484055 3.038681 -6.7870865 6.787079 -6.7870865l80.91403 0c1.8000412 0 3.5263672 0.71507263 4.7991867 1.9878922c1.2728271 1.2728271 1.9878922 2.9991455 1.9878922 4.7991943l0 54.425835c0 3.7483978 -3.038681 6.787079 -6.787079 6.787079l-80.91403 0c-3.7483978 0 -6.787079 -3.038681 -6.787079 -6.787079z" fill-rule="evenodd"/><path fill="#ffffff" d="m55.14968 120.86836l1.6875 0.203125q-0.40625 1.484375 -1.484375 2.3125q-1.078125 0.8125 -2.765625 0.8125q-2.125 0 -3.375 -1.296875q-1.234375 -1.3125 -1.234375 -3.671875q0 -2.453125 1.25 -3.796875q1.265625 -1.34375 3.265625 -1.34375q1.9375 0 3.15625 1.328125q1.234375 1.3125 1.234375 3.703125q0 0.15625 0 0.4375l-7.21875 0q0.09375 1.59375 0.90625 2.453125q0.8125 0.84375 2.015625 0.84375q0.90625 0 1.546875 -0.46875q0.640625 -0.484375 1.015625 -1.515625zm-5.390625 -2.65625l5.40625 0q-0.109375 -1.21875 -0.625 -1.828125q-0.78125 -0.953125 -2.03125 -0.953125q-1.125 0 -1.90625 0.765625q-0.765625 0.75 -0.84375 2.015625zm9.328842 5.765625l0 -13.359375l1.8125 0l7.015625 10.484375l0 -10.484375l1.6875 0l0 13.359375l-1.8125 0l-7.015625 -10.5l0 10.5l-1.6875 0zm12.676071 -4.84375q0 -2.6875 1.484375 -3.96875q1.25 -1.078125 3.046875 -1.078125q2.0 0 3.265625 1.3125q1.265625 1.296875 1.265625 3.609375q0 1.859375 -0.5625 2.9375q-0.5625 1.0625 -1.640625 1.65625q-1.0625 0.59375 -2.328125 0.59375q-2.03125 0 -3.28125 -1.296875q-1.25 -1.3125 -1.25 -3.765625zm1.6875 0q0 1.859375 0.796875 2.796875q0.8125 0.921875 2.046875 0.921875q1.21875 0 2.03125 -0.921875q0.8125 -0.9375 0.8125 -2.84375q0 -1.796875 -0.8125 -2.71875q-0.8125 -0.921875 -2.03125 -0.921875q-1.234375 0 -2.046875 0.921875q-0.796875 0.90625 -0.796875 2.765625zm15.563217 4.84375l0 -1.21875q-0.90625 1.4375 -2.703125 1.4375q-1.15625 0 -2.125 -0.640625q-0.96875 -0.640625 -1.5 -1.78125q-0.53125 -1.140625 -0.53125 -2.625q0 -1.453125 0.484375 -2.625q0.484375 -1.1875 1.4375 -1.8125q0.96875 -0.625 2.171875 -0.625q0.875 0 1.546875 0.375q0.6875 0.359375 1.109375 0.953125l0 -4.796875l1.640625 0l0 13.359375l-1.53125 0zm-5.171875 -4.828125q0 1.859375 0.78125 2.78125q0.78125 0.921875 1.84375 0.921875q1.078125 0 1.828125 -0.875q0.75 -0.890625 0.75 -2.6875q0 -1.984375 -0.765625 -2.90625q-0.765625 -0.9375 -1.890625 -0.9375q-1.078125 0 -1.8125 0.890625q-0.734375 0.890625 -0.734375 2.8125zm15.906967 1.71875l1.6875 0.203125q-0.40625 1.484375 -1.484375 2.3125q-1.078125 0.8125 -2.765625 0.8125q-2.125 0 -3.375 -1.296875q-1.234375 -1.3125 -1.234375 -3.671875q0 -2.453125 1.25 -3.796875q1.265625 -1.34375 3.265625 -1.34375q1.9375 0 3.15625 1.328125q1.234375 1.3125 1.234375 3.703125q0 0.15625 0 0.4375l-7.21875 0q0.09375 1.59375 0.90625 2.453125q0.8125 0.84375 2.015625 0.84375q0.90625 0 1.546875 -0.46875q0.640625 -0.484375 1.015625 -1.515625zm-5.390625 -2.65625l5.40625 0q-0.109375 -1.21875 -0.625 -1.828125q-0.78125 -0.953125 -2.03125 -0.953125q-1.125 0 -1.90625 0.765625q-0.765625 0.75 -0.84375 2.015625zm9.266342 5.765625l0 -13.359375l5.015625 0q1.53125 0 2.453125 0.40625q0.921875 0.40625 1.4375 1.25q0.53125 0.84375 0.53125 1.765625q0 0.859375 -0.46875 1.625q-0.453125 0.75 -1.390625 1.203125q1.203125 0.359375 1.859375 1.21875q0.65625 0.859375 0.65625 2.015625q0 0.9375 -0.40625 1.75q-0.390625 0.796875 -0.984375 1.234375q-0.578125 0.4375 -1.453125 0.671875q-0.875 0.21875 -2.15625 0.21875l-5.09375 0zm1.78125 -7.75l2.875 0q1.1875 0 1.6875 -0.140625q0.671875 -0.203125 1.015625 -0.671875q0.34375 -0.46875 0.34375 -1.171875q0 -0.65625 -0.328125 -1.15625q-0.3125 -0.515625 -0.90625 -0.703125q-0.59375 -0.1875 -2.03125 -0.1875l-2.65625 0l0 4.03125zm0 6.171875l3.3125 0q0.859375 0 1.203125 -0.0625q0.609375 -0.109375 1.015625 -0.359375q0.421875 -0.265625 0.6875 -0.75q0.265625 -0.484375 0.265625 -1.125q0 -0.75 -0.390625 -1.296875q-0.375 -0.546875 -1.0625 -0.765625q-0.671875 -0.234375 -1.953125 -0.234375l-3.078125 0l0 4.59375z" fill-rule="nonzero"/><path fill="#000000" fill-opacity="0.0" d="m294.01575 150.57742l65.00787 0l0 48.314972l-65.00787 0z" fill-rule="evenodd"/><path fill="#000000" d="m308.80838 181.6549l0 -13.359375l9.65625 0l0 1.578125l-7.875 0l0 4.09375l7.375 0l0 1.5625l-7.375 0l0 4.546875l8.1875 0l0 1.578125l-9.96875 0zm12.412323 0l0 -13.359375l5.046875 0q1.328125 0 2.03125 0.125q0.96875 0.171875 1.640625 0.640625q0.671875 0.453125 1.078125 1.28125q0.40625 0.828125 0.40625 1.828125q0 1.703125 -1.09375 2.890625q-1.078125 1.171875 -3.921875 1.171875l-3.421875 0l0 5.421875l-1.765625 0zm1.765625 -7.0l3.453125 0q1.71875 0 2.4375 -0.640625q0.71875 -0.640625 0.71875 -1.796875q0 -0.84375 -0.421875 -1.4375q-0.421875 -0.59375 -1.125 -0.78125q-0.4375 -0.125 -1.640625 -0.125l-3.421875 0l0 4.78125zm20.209198 2.3125l1.765625 0.453125q-0.5625 2.171875 -2.0 3.328125q-1.4375 1.140625 -3.53125 1.140625q-2.15625 0 -3.515625 -0.875q-1.34375 -0.890625 -2.0625 -2.546875q-0.703125 -1.671875 -0.703125 -3.59375q0 -2.078125 0.796875 -3.625q0.796875 -1.5625 2.265625 -2.359375q1.484375 -0.8125 3.25 -0.8125q2.0 0 3.359375 1.015625q1.375 1.015625 1.90625 2.875l-1.734375 0.40625q-0.46875 -1.453125 -1.359375 -2.109375q-0.875 -0.671875 -2.203125 -0.671875q-1.546875 0 -2.578125 0.734375q-1.03125 0.734375 -1.453125 1.984375q-0.421875 1.234375 -0.421875 2.5625q0 1.703125 0.5 2.96875q0.5 1.265625 1.546875 1.90625q1.046875 0.625 2.265625 0.625q1.484375 0 2.515625 -0.859375q1.03125 -0.859375 1.390625 -2.546875z" fill-rule="nonzero"/></g></svg>